<?xml version="1.0" encoding="UTF-8" standalone="no"?>
<svg xmlns="http://www.w3.org/2000/svg" xmlns:xlink="http://www.w3.org/1999/xlink" width="128" height="128">
  <defs>
    <clipPath id="i">
      <use width="228" height="228" xlink:href="#a"/>
    </clipPath>
    <radialGradient id="h" cx="167.788" cy="143.932" r="12.322" fx="167.788" fy="143.932" gradientUnits="userSpaceOnUse">
      <stop offset="0" stop-color="#fff"/>
      <stop offset="1"/>
    </radialGradient>
    <clipPath id="g">
      <use width="228" height="228" xlink:href="#b"/>
    </clipPath>
    <radialGradient id="f" cx="158.503" cy="140.876" r="14.791" fx="158.503" fy="140.876" gradientTransform="matrix(1.0191 0 0 1.1269 -6.707 -10.842)" gradientUnits="userSpaceOnUse">
      <stop offset="0" stop-color="#fff"/>
      <stop offset="1"/>
    </radialGradient>
    <clipPath id="k">
      <use width="228" height="228" xlink:href="#c"/>
    </clipPath>
    <radialGradient id="d" cx="114" cy="114" r="114" fx="114" fy="114" gradientUnits="userSpaceOnUse">
      <stop offset="0" stop-color="#fff"/>
      <stop offset="1" stop-color="#28aef9"/>
    </radialGradient>
    <filter id="e">
      <feGaussianBlur in="SourceAlpha" stdDeviation="1"/>
    </filter>
    <radialGradient id="j" cx="114" cy="114" r="114" fx="114" fy="114" gradientUnits="userSpaceOnUse" xlink:href="#d"/>
    <path id="c" d="M97.384 211.697l-10.666-40.531-13 8.834.729 1.188 9.604-4.855 13.333 47.334 18-100.833h72.501v-7.668h-73.501l-17 96.531z"/>
  </defs>
  <g filter="url(#e)" opacity=".5" transform="translate(-67.95 -105.838)">
    <path d="M132.203 150.82l17.996-3.069c3.267 5.121 5.57 10.76 6.912 16.912 3.369-4.984 5.911-8.473 7.631-10.468 2.303-2.681 4.204-4.425 5.698-5.233a9.895 9.895 0 0 1 4.771-1.211c1.89 0 3.342.521 4.356 1.563 1.015 1.04 1.522 2.447 1.522 4.216 0 1.668-.508 3.029-1.522 4.089-1.015 1.059-2.276 1.586-3.789 1.586-1.1 0-2.363-.215-3.79-.648-1.429-.433-2.415-.65-2.966-.65-1.444 0-2.818.518-4.124 1.549-1.791 1.409-3.99 4.418-6.603 9.023 2.912 10.293 5.239 16.568 6.987 18.83 1.027 1.34 2.071 2.008 3.135 2.008.89 0 1.661-.242 2.312-.729.992-.783 2.519-2.746 4.574-5.883l1.889 1.127c-3.015 5.084-5.961 8.666-8.837 10.744-2.192 1.609-4.351 2.416-6.475 2.416-2.194 0-4.018-.492-5.475-1.477-1.456-.986-2.749-2.594-3.878-4.822-1.131-2.229-2.467-5.799-4.008-10.707-4.048 5.15-7.224 8.91-9.524 11.277-2.3 2.369-4.212 3.914-5.733 4.641a11.204 11.204 0 0 1-4.879 1.088c-1.797 0-3.225-.514-4.28-1.543-1.055-1.029-1.583-2.367-1.583-4.012 0-1.748.572-3.188 1.714-4.32 1.146-1.131 2.6-1.697 4.367-1.697.934 0 1.991.285 3.17.852 1.73.85 2.976 1.275 3.735 1.275 1.001 0 1.899-.209 2.695-.629 1.035-.523 2.346-1.656 3.936-3.402.966-1.08 2.743-3.385 5.333-6.908-3.324-12.189-5.921-19.481-7.789-21.878-1.188-1.542-2.687-2.313-4.499-2.313-.94 0-2.092.139-3.451.413l.472-2.01z"/>
    <path d="M188.875 113.224h-73.5a3.001 3.001 0 0 0-2.955 2.479l-14.626 83.055-7.184-27.298a2.999 2.999 0 0 0-4.587-1.718l-13 8.834a3 3 0 0 0-.871 4.051l.729 1.188a3 3 0 0 0 3.91 1.108l6.352-3.211 12.345 43.826a3 3 0 0 0 5.841-.286l17.559-98.36h69.989a3 3 0 0 0 3-3v-7.668a3.003 3.003 0 0 0-3.002-3z"/>
  </g>
  <path d="M63.262 43.925l17.996-3.069c3.267 5.121 5.57 10.76 6.912 16.912 3.37-4.983 5.911-8.472 7.631-10.468 2.303-2.68 4.204-4.425 5.698-5.233a9.895 9.895 0 0 1 4.771-1.21c1.89 0 3.342.52 4.356 1.563 1.015 1.04 1.522 2.447 1.522 4.216 0 1.667-.508 3.029-1.522 4.089-1.015 1.059-2.276 1.585-3.789 1.585-1.1 0-2.363-.215-3.79-.648-1.429-.432-2.415-.65-2.966-.65-1.444 0-2.818.518-4.124 1.55-1.79 1.408-3.99 4.418-6.603 9.022 2.912 10.293 5.24 16.569 6.987 18.83 1.027 1.34 2.071 2.008 3.135 2.008.89 0 1.661-.242 2.312-.728.992-.784 2.52-2.747 4.574-5.884l1.89 1.127c-3.016 5.085-5.962 8.666-8.838 10.745-2.192 1.608-4.35 2.415-6.475 2.415-2.194 0-4.018-.491-5.475-1.477-1.456-.986-2.749-2.594-3.878-4.822-1.13-2.228-2.467-5.799-4.008-10.707-4.048 5.15-7.224 8.91-9.524 11.277-2.3 2.37-4.212 3.915-5.733 4.642a11.204 11.204 0 0 1-4.879 1.087c-1.797 0-3.225-.514-4.28-1.543-1.055-1.029-1.583-2.367-1.583-4.012 0-1.748.572-3.188 1.714-4.32 1.146-1.13 2.6-1.697 4.367-1.697.934 0 1.991.285 3.17.852 1.73.85 2.976 1.276 3.735 1.276 1.001 0 1.9-.21 2.695-.63 1.035-.523 2.346-1.655 3.936-3.401.966-1.08 2.743-3.385 5.333-6.909-3.324-12.189-5.92-19.48-7.789-21.877-1.188-1.543-2.687-2.313-4.499-2.313-.94 0-2.092.138-3.45.412l.471-2.01z"/>
  <g transform="translate(-67.95 -105.838)">
    <defs>
      <path id="b" d="M147.445 175.285c-3.391-12.432-5.996-19.703-7.965-22.229-1.378-1.79-3.158-2.699-5.288-2.699-.204 0-.424.01-.646.021l15.161-2.586c3.004 4.854 5.175 10.238 6.438 16.025l.497 2.281-8.197 9.187z"/>
    </defs>
    <path fill="url(#f)" d="M139.938 131.031h29.769v33.75h-29.769z" clip-path="url(#g)"/>
  </g>
  <g transform="translate(-67.95 -105.838)">
    <defs>
      <path id="a" d="M156.949 164.165c3.338-4.938 5.882-8.428 7.561-10.374 2.21-2.574 4.032-4.258 5.416-5.007a8.948 8.948 0 0 1 4.295-1.091c1.622 0 2.813.412 3.641 1.26.833.855 1.238 2.006 1.238 3.519 0 1.411-.407 2.522-1.245 3.397-.824.859-1.827 1.277-3.066 1.277-.998 0-2.176-.203-3.499-.605-1.563-.473-2.598-.693-3.257-.693-1.667 0-3.263.594-4.744 1.764-1.906 1.5-4.147 4.548-6.853 9.316l.513-2.763z"/>
    </defs>
    <path fill="url(#h)" d="M155.622 131.457h24.333v24.949h-24.333z" clip-path="url(#i)"/>
  </g>
  <path fill="#00517e" d="M119.934 6.329h-73.5a3.001 3.001 0 0 0-2.955 2.478L28.852 91.863l-7.184-27.297a2.999 2.999 0 0 0-4.587-1.718l-13 8.833a3 3 0 0 0-.87 4.051l.728 1.189a3 3 0 0 0 3.91 1.108l6.352-3.212 12.345 43.826a3 3 0 0 0 5.841-.285l17.56-98.36h69.988a3 3 0 0 0 3-3V9.329a3.001 3.001 0 0 0-3-3z"/>
  <path fill="#1a82c3" d="M119.934 7.829h-73.5a1.5 1.5 0 0 0-1.477 1.24L29.144 98.862 20.22 64.947a1.498 1.498 0 0 0-2.294-.858l-13 8.834a1.5 1.5 0 0 0-.435 2.025l.73 1.188a1.501 1.501 0 0 0 1.954.553l7.978-4.031 12.84 45.579a1.5 1.5 0 0 0 2.92-.142L48.69 18.498h71.245a1.5 1.5 0 0 0 1.5-1.5v-7.67a1.502 1.502 0 0 0-1.5-1.5z"/>
  <path fill="url(#j)" d="M0 0h228v228H0z" clip-path="url(#k)" transform="translate(-67.95 -105.838)"/>
</svg>
